<svg xmlns="http://www.w3.org/2000/svg" width="32" height="22" viewBox="0 0 32 22"><g transform="translate(-64 -1874)"><g transform="translate(64 1869)"><path d="M26,15l6-4V27l-6-4Zm-2,0v8a4,4,0,0,1-4,4H4a4,4,0,0,1-4-4V15a4,4,0,0,1,4-4H14a2,2,0,0,1,2-2V7H5A1,1,0,0,1,5,5H17a1,1,0,0,1,1,1V9a2,2,0,0,1,2,2A4,4,0,0,1,24,15ZM12,15H4v8h8Zm8,1a1,1,0,0,0-1-1H15a1,1,0,0,0,0,2h4A1,1,0,0,0,20,16Z"/></g><path d="M90,1892v-8l6-4v16Zm-22,4a4,4,0,0,1-4-4v-8a4,4,0,0,1,4-4H78a2,2,0,0,1,2-2v-2H69a1,1,0,1,1,0-2H81a1,1,0,0,1,1,1v3a2,2,0,0,1,2,2,4,4,0,0,1,4,4v8a4,4,0,0,1-4,4Zm0-4h8v-8H68Zm10-7a1,1,0,0,0,1,1h4a1,1,0,0,0,0-2H79A1,1,0,0,0,78,1885Z" fill="#63d1bb"/></g></svg>