<svg xmlns="http://www.w3.org/2000/svg" width="32" height="22"><path d="M26 10l6-4v16l-6-4zm-2 0v8a4 4 0 0 1-4 4H4a4 4 0 0 1-4-4v-8a4 4 0 0 1 4-4h10a2 2 0 0 1 2-2V2H5a1 1 0 0 1 0-2h12a1 1 0 0 1 1 1v3a2 2 0 0 1 2 2 4 4 0 0 1 4 4zm-12 0H4v8h8zm8 1a1 1 0 0 0-1-1h-4a1 1 0 0 0 0 2h4a1 1 0 0 0 1-1z"/><path d="M26 18v-8l6-4v16zM4 22a4 4 0 0 1-4-4v-8a4 4 0 0 1 4-4h10a2 2 0 0 1 2-2V2H5a1 1 0 1 1 0-2h12a1 1 0 0 1 1 1v3a2 2 0 0 1 2 2 4 4 0 0 1 4 4v8a4 4 0 0 1-4 4zm0-4h8v-8H4zm10-7a1 1 0 0 0 1 1h4a1 1 0 0 0 0-2h-4a1 1 0 0 0-1 1z" fill="#63d1bb"/></svg>